<mxfile host="app.diagrams.net" modified="2023-12-07T21:56:07.151Z" agent="Mozilla/5.0 (X11; Linux x86_64) AppleWebKit/537.36 (KHTML, like Gecko) Chrome/120.0.0.0 Safari/537.36" etag="SjNonYOz9QnNzntORTaL" version="22.1.7" type="github">
  <diagram name="Página-1" id="RHjE5RGPsofoxa6nacqF">
    <mxGraphModel dx="1816" dy="496" grid="1" gridSize="10" guides="1" tooltips="1" connect="1" arrows="1" fold="1" page="1" pageScale="1" pageWidth="827" pageHeight="1169" math="0" shadow="0">
      <root>
        <mxCell id="0" />
        <mxCell id="1" parent="0" />
        <mxCell id="rI9gyJZIdGUJSo5D507Y-26" style="edgeStyle=orthogonalEdgeStyle;rounded=0;orthogonalLoop=1;jettySize=auto;html=1;exitX=0.5;exitY=1;exitDx=0;exitDy=0;entryX=0.5;entryY=0;entryDx=0;entryDy=0;" edge="1" parent="1" source="rI9gyJZIdGUJSo5D507Y-1" target="rI9gyJZIdGUJSo5D507Y-3">
          <mxGeometry relative="1" as="geometry" />
        </mxCell>
        <mxCell id="rI9gyJZIdGUJSo5D507Y-31" value="Reciben compensaciones (Tokens)" style="edgeLabel;html=1;align=center;verticalAlign=middle;resizable=0;points=[];" vertex="1" connectable="0" parent="rI9gyJZIdGUJSo5D507Y-26">
          <mxGeometry x="-0.1149" y="-2" relative="1" as="geometry">
            <mxPoint x="6" y="23" as="offset" />
          </mxGeometry>
        </mxCell>
        <mxCell id="rI9gyJZIdGUJSo5D507Y-27" style="rounded=0;orthogonalLoop=1;jettySize=auto;html=1;exitX=0;exitY=0;exitDx=0;exitDy=0;dashed=1;startArrow=classic;startFill=1;" edge="1" parent="1" source="rI9gyJZIdGUJSo5D507Y-1">
          <mxGeometry relative="1" as="geometry">
            <mxPoint x="120" y="270" as="targetPoint" />
          </mxGeometry>
        </mxCell>
        <mxCell id="rI9gyJZIdGUJSo5D507Y-32" value="Solicita información sobre &lt;br&gt;la disponibiildad&lt;br&gt;&amp;nbsp;de las redes de servicios" style="edgeLabel;html=1;align=center;verticalAlign=middle;resizable=0;points=[];" vertex="1" connectable="0" parent="rI9gyJZIdGUJSo5D507Y-27">
          <mxGeometry x="0.1553" y="-2" relative="1" as="geometry">
            <mxPoint x="32" y="12" as="offset" />
          </mxGeometry>
        </mxCell>
        <mxCell id="rI9gyJZIdGUJSo5D507Y-1" value="Red distribuida&amp;nbsp;&lt;br&gt;Contratos inteligentes" style="rounded=1;whiteSpace=wrap;html=1;" vertex="1" parent="1">
          <mxGeometry x="350" y="340" width="120" height="60" as="geometry" />
        </mxCell>
        <mxCell id="rI9gyJZIdGUJSo5D507Y-19" style="edgeStyle=orthogonalEdgeStyle;rounded=0;orthogonalLoop=1;jettySize=auto;html=1;exitX=1;exitY=0.5;exitDx=0;exitDy=0;entryX=0;entryY=0.5;entryDx=0;entryDy=0;" edge="1" parent="1" source="rI9gyJZIdGUJSo5D507Y-2" target="rI9gyJZIdGUJSo5D507Y-1">
          <mxGeometry relative="1" as="geometry" />
        </mxCell>
        <mxCell id="rI9gyJZIdGUJSo5D507Y-2" value="Servicio Oraculo" style="rounded=1;whiteSpace=wrap;html=1;" vertex="1" parent="1">
          <mxGeometry x="160" y="340" width="120" height="60" as="geometry" />
        </mxCell>
        <mxCell id="rI9gyJZIdGUJSo5D507Y-3" value="Customers" style="rounded=1;whiteSpace=wrap;html=1;" vertex="1" parent="1">
          <mxGeometry x="350" y="530" width="120" height="60" as="geometry" />
        </mxCell>
        <mxCell id="rI9gyJZIdGUJSo5D507Y-17" style="edgeStyle=orthogonalEdgeStyle;rounded=0;orthogonalLoop=1;jettySize=auto;html=1;exitX=1;exitY=0.5;exitDx=0;exitDy=0;exitPerimeter=0;entryX=0;entryY=0.5;entryDx=0;entryDy=0;" edge="1" parent="1" source="rI9gyJZIdGUJSo5D507Y-4" target="rI9gyJZIdGUJSo5D507Y-2">
          <mxGeometry relative="1" as="geometry" />
        </mxCell>
        <mxCell id="rI9gyJZIdGUJSo5D507Y-38" value="Datos" style="edgeLabel;html=1;align=center;verticalAlign=middle;resizable=0;points=[];" vertex="1" connectable="0" parent="rI9gyJZIdGUJSo5D507Y-17">
          <mxGeometry x="-0.0648" relative="1" as="geometry">
            <mxPoint as="offset" />
          </mxGeometry>
        </mxCell>
        <mxCell id="rI9gyJZIdGUJSo5D507Y-4" value="Información disponibilidad red electrica" style="shape=cylinder3;whiteSpace=wrap;html=1;boundedLbl=1;backgroundOutline=1;size=15;" vertex="1" parent="1">
          <mxGeometry x="-100" y="330" width="160" height="80" as="geometry" />
        </mxCell>
        <mxCell id="rI9gyJZIdGUJSo5D507Y-18" style="rounded=0;orthogonalLoop=1;jettySize=auto;html=1;exitX=1;exitY=0.5;exitDx=0;exitDy=0;exitPerimeter=0;" edge="1" parent="1" source="rI9gyJZIdGUJSo5D507Y-5">
          <mxGeometry relative="1" as="geometry">
            <mxPoint x="160" y="370" as="targetPoint" />
          </mxGeometry>
        </mxCell>
        <mxCell id="rI9gyJZIdGUJSo5D507Y-37" value="Datos" style="edgeLabel;html=1;align=center;verticalAlign=middle;resizable=0;points=[];" vertex="1" connectable="0" parent="rI9gyJZIdGUJSo5D507Y-18">
          <mxGeometry x="0.072" y="-3" relative="1" as="geometry">
            <mxPoint as="offset" />
          </mxGeometry>
        </mxCell>
        <mxCell id="rI9gyJZIdGUJSo5D507Y-5" value="Información disponibilidad red de Gas" style="shape=cylinder3;whiteSpace=wrap;html=1;boundedLbl=1;backgroundOutline=1;size=15;" vertex="1" parent="1">
          <mxGeometry x="-100" y="450" width="160" height="80" as="geometry" />
        </mxCell>
        <mxCell id="rI9gyJZIdGUJSo5D507Y-16" style="rounded=0;orthogonalLoop=1;jettySize=auto;html=1;exitX=1;exitY=0.5;exitDx=0;exitDy=0;exitPerimeter=0;entryX=0;entryY=0.5;entryDx=0;entryDy=0;" edge="1" parent="1" source="rI9gyJZIdGUJSo5D507Y-6" target="rI9gyJZIdGUJSo5D507Y-2">
          <mxGeometry relative="1" as="geometry" />
        </mxCell>
        <mxCell id="rI9gyJZIdGUJSo5D507Y-39" value="Datos" style="edgeLabel;html=1;align=center;verticalAlign=middle;resizable=0;points=[];" vertex="1" connectable="0" parent="rI9gyJZIdGUJSo5D507Y-16">
          <mxGeometry x="0.4195" y="-3" relative="1" as="geometry">
            <mxPoint as="offset" />
          </mxGeometry>
        </mxCell>
        <mxCell id="rI9gyJZIdGUJSo5D507Y-6" value="Información disponibildad telecomunicaciones" style="shape=cylinder3;whiteSpace=wrap;html=1;boundedLbl=1;backgroundOutline=1;size=15;" vertex="1" parent="1">
          <mxGeometry x="-90" y="190" width="150" height="80" as="geometry" />
        </mxCell>
        <mxCell id="rI9gyJZIdGUJSo5D507Y-21" style="rounded=0;orthogonalLoop=1;jettySize=auto;html=1;exitX=0.5;exitY=1;exitDx=0;exitDy=0;entryX=0.163;entryY=-0.022;entryDx=0;entryDy=0;entryPerimeter=0;startArrow=classic;startFill=1;" edge="1" parent="1" source="rI9gyJZIdGUJSo5D507Y-7" target="rI9gyJZIdGUJSo5D507Y-1">
          <mxGeometry relative="1" as="geometry">
            <mxPoint x="400.1176470588234" y="330" as="targetPoint" />
          </mxGeometry>
        </mxCell>
        <mxCell id="rI9gyJZIdGUJSo5D507Y-29" value="Verifica el sistema y&lt;br&gt;&amp;nbsp;recibe importe sanciones (Tokens)&amp;nbsp;" style="edgeLabel;html=1;align=center;verticalAlign=middle;resizable=0;points=[];" vertex="1" connectable="0" parent="rI9gyJZIdGUJSo5D507Y-21">
          <mxGeometry x="-0.1099" y="-2" relative="1" as="geometry">
            <mxPoint x="-14" y="-24" as="offset" />
          </mxGeometry>
        </mxCell>
        <mxCell id="rI9gyJZIdGUJSo5D507Y-7" value="Gobierno" style="rounded=1;whiteSpace=wrap;html=1;" vertex="1" parent="1">
          <mxGeometry x="230" y="160" width="120" height="60" as="geometry" />
        </mxCell>
        <mxCell id="rI9gyJZIdGUJSo5D507Y-22" style="rounded=0;orthogonalLoop=1;jettySize=auto;html=1;exitX=0.5;exitY=1;exitDx=0;exitDy=0;entryX=0.75;entryY=0;entryDx=0;entryDy=0;" edge="1" parent="1" source="rI9gyJZIdGUJSo5D507Y-8" target="rI9gyJZIdGUJSo5D507Y-1">
          <mxGeometry relative="1" as="geometry" />
        </mxCell>
        <mxCell id="rI9gyJZIdGUJSo5D507Y-30" value="Aportan compesanciones (Tokens)" style="edgeLabel;html=1;align=center;verticalAlign=middle;resizable=0;points=[];" vertex="1" connectable="0" parent="rI9gyJZIdGUJSo5D507Y-22">
          <mxGeometry x="-0.0608" y="3" relative="1" as="geometry">
            <mxPoint x="24" y="-29" as="offset" />
          </mxGeometry>
        </mxCell>
        <mxCell id="rI9gyJZIdGUJSo5D507Y-8" value="Compañias de suministros" style="rounded=1;whiteSpace=wrap;html=1;" vertex="1" parent="1">
          <mxGeometry x="500" y="160" width="120" height="60" as="geometry" />
        </mxCell>
        <mxCell id="rI9gyJZIdGUJSo5D507Y-20" style="edgeStyle=orthogonalEdgeStyle;rounded=0;orthogonalLoop=1;jettySize=auto;html=1;exitX=0;exitY=0.5;exitDx=0;exitDy=0;entryX=1;entryY=0.5;entryDx=0;entryDy=0;" edge="1" parent="1" source="rI9gyJZIdGUJSo5D507Y-9" target="rI9gyJZIdGUJSo5D507Y-1">
          <mxGeometry relative="1" as="geometry" />
        </mxCell>
        <mxCell id="rI9gyJZIdGUJSo5D507Y-9" value="Servicio Oraculo" style="rounded=1;whiteSpace=wrap;html=1;" vertex="1" parent="1">
          <mxGeometry x="560" y="340" width="120" height="60" as="geometry" />
        </mxCell>
        <mxCell id="rI9gyJZIdGUJSo5D507Y-23" style="rounded=0;orthogonalLoop=1;jettySize=auto;html=1;exitX=0;exitY=0;exitDx=0;exitDy=30;exitPerimeter=0;entryX=1;entryY=0;entryDx=0;entryDy=0;" edge="1" parent="1" source="rI9gyJZIdGUJSo5D507Y-10" target="rI9gyJZIdGUJSo5D507Y-9">
          <mxGeometry relative="1" as="geometry" />
        </mxCell>
        <mxCell id="rI9gyJZIdGUJSo5D507Y-34" value="Datos" style="edgeLabel;html=1;align=center;verticalAlign=middle;resizable=0;points=[];" vertex="1" connectable="0" parent="rI9gyJZIdGUJSo5D507Y-23">
          <mxGeometry x="-0.0846" y="1" relative="1" as="geometry">
            <mxPoint as="offset" />
          </mxGeometry>
        </mxCell>
        <mxCell id="rI9gyJZIdGUJSo5D507Y-10" value="Equipos de telecomunicacion cliente" style="shape=cube;whiteSpace=wrap;html=1;boundedLbl=1;backgroundOutline=1;darkOpacity=0.05;darkOpacity2=0.1;" vertex="1" parent="1">
          <mxGeometry x="790" y="200" width="120" height="80" as="geometry" />
        </mxCell>
        <mxCell id="rI9gyJZIdGUJSo5D507Y-24" style="rounded=0;orthogonalLoop=1;jettySize=auto;html=1;exitX=0;exitY=0;exitDx=0;exitDy=30;exitPerimeter=0;entryX=1;entryY=1;entryDx=0;entryDy=0;endArrow=classic;endFill=1;" edge="1" parent="1" source="rI9gyJZIdGUJSo5D507Y-11" target="rI9gyJZIdGUJSo5D507Y-9">
          <mxGeometry relative="1" as="geometry" />
        </mxCell>
        <mxCell id="rI9gyJZIdGUJSo5D507Y-36" value="Datos" style="edgeLabel;html=1;align=center;verticalAlign=middle;resizable=0;points=[];" vertex="1" connectable="0" parent="rI9gyJZIdGUJSo5D507Y-24">
          <mxGeometry x="-0.0559" y="-2" relative="1" as="geometry">
            <mxPoint as="offset" />
          </mxGeometry>
        </mxCell>
        <mxCell id="rI9gyJZIdGUJSo5D507Y-11" value="Contadores Electricos" style="shape=cube;whiteSpace=wrap;html=1;boundedLbl=1;backgroundOutline=1;darkOpacity=0.05;darkOpacity2=0.1;" vertex="1" parent="1">
          <mxGeometry x="790" y="470" width="120" height="80" as="geometry" />
        </mxCell>
        <mxCell id="rI9gyJZIdGUJSo5D507Y-25" style="edgeStyle=orthogonalEdgeStyle;rounded=0;orthogonalLoop=1;jettySize=auto;html=1;exitX=0;exitY=0;exitDx=0;exitDy=30;exitPerimeter=0;" edge="1" parent="1" source="rI9gyJZIdGUJSo5D507Y-12" target="rI9gyJZIdGUJSo5D507Y-9">
          <mxGeometry relative="1" as="geometry" />
        </mxCell>
        <mxCell id="rI9gyJZIdGUJSo5D507Y-35" value="Datos" style="edgeLabel;html=1;align=center;verticalAlign=middle;resizable=0;points=[];" vertex="1" connectable="0" parent="rI9gyJZIdGUJSo5D507Y-25">
          <mxGeometry x="-0.0508" y="3" relative="1" as="geometry">
            <mxPoint as="offset" />
          </mxGeometry>
        </mxCell>
        <mxCell id="rI9gyJZIdGUJSo5D507Y-12" value="Contadores de gas" style="shape=cube;whiteSpace=wrap;html=1;boundedLbl=1;backgroundOutline=1;darkOpacity=0.05;darkOpacity2=0.1;" vertex="1" parent="1">
          <mxGeometry x="790" y="340" width="120" height="80" as="geometry" />
        </mxCell>
        <mxCell id="rI9gyJZIdGUJSo5D507Y-28" style="rounded=0;orthogonalLoop=1;jettySize=auto;html=1;exitX=1;exitY=0.25;exitDx=0;exitDy=0;dashed=1;startArrow=classic;startFill=1;" edge="1" parent="1" source="rI9gyJZIdGUJSo5D507Y-1">
          <mxGeometry relative="1" as="geometry">
            <mxPoint x="720" y="260" as="targetPoint" />
            <mxPoint x="360" y="350" as="sourcePoint" />
          </mxGeometry>
        </mxCell>
        <mxCell id="rI9gyJZIdGUJSo5D507Y-33" value="Solicita información sobre &lt;br&gt;los dispositivos finales" style="edgeLabel;html=1;align=center;verticalAlign=middle;resizable=0;points=[];" vertex="1" connectable="0" parent="rI9gyJZIdGUJSo5D507Y-28">
          <mxGeometry x="-0.1953" y="3" relative="1" as="geometry">
            <mxPoint x="1" as="offset" />
          </mxGeometry>
        </mxCell>
      </root>
    </mxGraphModel>
  </diagram>
</mxfile>
